Coordinates
version=1
nRows=30
nColumns=30
inDegrees=yes

Units are S.I. units (second, meters, Newtons, ...)
Angles are in degrees.

endheader
time	floatyaw	floatroll	floatpitch	floatx	floaty	floatz	pro_sup_l	deviation_l	flexion_l	cmc_flexion_l	cmc_abduction_l	mp_flexion_l	ip_flexion_l	2mcp_flexion_l	2mcp_abduction_l	2pm_flexion_l	2md_flexion_l	3mcp_flexion_l	3mcp_abduction_l	3pm_flexion_l	3md_flexion_l	4mcp_flexion_l	4mcp_abduction_l	4pm_flexion_l	4md_flexion_l	5mcp_flexion_l	5mcp_abduction_l	5pm_flexion_l	5md_flexion_l
-0.995000	-160.147433	-5.066637	-73.570646	0.074154	-0.179385	-0.020478	103.821616	5.503228	-1.653199	15.091695	6.184497	-25.535378	-41.270507	31.354025	7.808232	43.560376	30.923925	26.134433	4.631067	45.517285	29.493848	15.949639	-4.544870	54.176967	37.403650	4.465391	-9.401199	64.586832	45.589829
-0.985000	-160.147433	-5.066637	-73.570646	0.074109	-0.179354	-0.020472	103.758218	5.494048	-1.662391	15.056152	6.242664	-25.579694	-41.315189	31.485376	7.823715	43.502473	30.924336	26.161119	4.633040	45.567259	29.489348	16.031344	-4.554245	54.176390	37.437178	4.614234	-9.405436	64.544706	45.579204
-0.975000	-160.147433	-5.066637	-73.570646	0.074072	-0.179325	-0.020466	103.678660	5.476443	-1.653480	15.015635	6.297905	-25.618821	-41.357145	31.590387	7.836006	43.444325	30.929212	26.165889	4.634317	45.624574	29.495856	16.090871	-4.563541	54.185470	37.481693	4.716370	-9.400652	64.513478	45.578493
-0.965000	-160.147433	-5.066637	-73.570646	0.074043	-0.179293	-0.020464	103.594987	5.452334	-1.629638	14.972110	6.342654	-25.642210	-41.383827	31.662313	7.844094	43.392872	30.943451	26.154863	4.634495	45.682065	29.501938	16.124764	-4.571424	54.196515	37.530183	4.769275	-9.388765	64.490759	45.587831
-0.955000	-160.147433	-5.066637	-73.570646	0.074024	-0.179255	-0.020464	103.517637	5.426023	-1.596354	14.929823	6.374360	-25.645560	-41.388355	31.701760	7.847638	43.354756	30.966842	26.134931	4.633347	45.734804	29.502871	16.135356	-4.576632	54.205297	37.576009	4.782260	-9.373417	64.474642	45.603145
-0.945000	-160.147433	-5.066637	-73.570646	0.074012	-0.179211	-0.020460	103.452904	5.402519	-1.560194	14.893855	6.398007	-25.631823	-41.372458	31.717599	7.847620	43.333226	30.993471	26.113257	4.630988	45.780487	29.500060	16.131937	-4.578401	54.210975	37.613910	4.774030	-9.358387	64.464670	45.617819
-0.935000	-160.147433	-5.066637	-73.570646	0.074006	-0.179163	-0.020452	103.402489	5.385305	-1.527134	14.868264	6.423812	-25.609112	-41.345106	31.723700	7.846308	43.326672	31.014633	26.096277	4.628008	45.818529	29.497513	16.127588	-4.576912	54.214513	37.641018	4.765438	-9.346233	64.460880	45.625982
-0.925000	-160.147433	-5.066637	-73.570646	0.074004	-0.179117	-0.020438	103.364483	5.374961	-1.500832	14.854629	6.461142	-25.587031	-41.318305	31.732985	7.846340	43.329479	31.022919	26.087887	4.625406	45.848926	29.498329	16.133250	-4.573515	54.217491	37.657379	4.771172	-9.337818	64.462770	45.625156
-0.915000	-160.147433	-5.066637	-73.570646	0.074004	-0.179077	-0.020423	103.335044	5.369500	-1.481608	14.851515	6.512624	-25.573014	-41.302384	31.752114	7.849469	43.334290	31.015017	26.088008	4.624266	45.871453	29.502921	16.152549	-4.570409	54.221515	37.665523	4.794850	-9.332781	64.468998	45.616778
-0.905000	-160.147433	-5.066637	-73.570646	0.074006	-0.179046	-0.020409	103.310087	5.366044	-1.466657	14.854872	6.572108	-25.569653	-41.302581	31.779729	7.855770	43.334131	30.992243	26.092946	4.625308	45.885152	29.508902	16.180556	-4.569749	54.227457	37.669214	4.829776	-9.330372	64.477464	45.604713
-0.895000	-160.147433	-5.066637	-73.570646	0.074010	-0.179023	-0.020401	103.286490	5.362586	-1.451465	14.859072	6.627370	-25.573688	-41.317644	31.808913	7.863744	43.323673	30.959360	26.097593	4.628601	45.888252	29.512005	16.207066	-4.572649	54.234391	37.672052	4.864314	-9.330036	64.485328	45.592942
-0.885000	-160.147433	-5.066637	-73.570646	0.074018	-0.179007	-0.020397	103.262727	5.358823	-1.431815	14.858405	6.665854	-25.577191	-41.340577	31.831899	7.871122	43.300098	30.922838	26.097885	4.633628	45.878942	29.507779	16.222177	-4.578662	54.239250	37.676513	4.888579	-9.331612	64.489025	45.583710
-0.875000	-160.147433	-5.066637	-73.570646	0.074028	-0.178993	-0.020396	103.239137	5.355847	-1.405474	14.848799	6.680498	-25.571038	-41.361344	31.843879	7.875880	43.264233	30.889334	26.091860	4.639621	45.857022	29.493847	16.220771	-4.586046	54.238159	37.683542	4.899039	-9.335380	64.484602	45.576790
-0.865000	-160.147433	-5.066637	-73.570646	0.074042	-0.178977	-0.020395	103.217867	5.355142	-1.372979	14.829201	6.672953	-25.549483	-41.370824	31.843891	7.877101	43.221557	30.864523	26.079126	4.645861	45.825502	29.471835	16.203740	-4.592639	54.229020	37.692553	4.899156	-9.342036	64.468549	45.569971
-0.855000	-160.147433	-5.066637	-73.570646	0.074057	-0.178958	-0.020392	103.202236	5.357408	-1.337368	14.801843	6.652865	-25.513468	-41.364446	31.833240	7.875509	43.181550	30.852133	26.060021	4.651743	45.790910	29.447685	16.176168	-4.596870	54.213610	37.701917	4.896352	-9.352341	64.438993	45.560600
-0.845000	-160.147433	-5.066637	-73.570646	0.074073	-0.178935	-0.020387	103.195392	5.361689	-1.303009	14.771118	6.633661	-25.470512	-41.343791	31.813707	7.873529	43.154124	30.853158	26.035772	4.656651	45.761649	29.429585	16.144448	-4.598426	54.197408	37.709976	4.897239	-9.366225	64.396934	45.547680
-0.835000	-160.147433	-5.066637	-73.570646	0.074089	-0.178910	-0.020385	103.198739	5.365295	-1.273812	14.741752	6.626726	-25.431200	-41.315550	31.787502	7.874706	43.143900	30.865308	26.009566	4.659851	45.744846	29.424102	16.114368	-4.598269	54.186876	37.716047	4.903730	-9.381703	64.347009	45.533439
-0.825000	-160.147433	-5.066637	-73.570646	0.074101	-0.178885	-0.020388	103.210958	5.364814	-1.251464	14.717455	6.636484	-25.404493	-41.288749	31.758904	7.882416	43.145784	30.882823	25.987237	4.660638	45.743032	29.432499	16.090739	-4.597997	54.185834	37.720390	4.912266	-9.394628	64.297022	45.523052
-0.815000	-160.147433	-5.066637	-73.570646	0.074109	-0.178858	-0.020401	103.228257	5.357903	-1.234651	14.700641	6.658627	-25.394417	-41.271582	31.735576	7.898269	43.145953	30.897086	25.976139	4.658831	45.752572	29.449592	16.077616	-4.598867	54.193464	37.722979	4.916785	-9.400154	64.255969	45.522104
-0.805000	-160.147433	-5.066637	-73.570646	0.074109	-0.178830	-0.020426	103.245805	5.345025	-1.219937	14.692759	6.682435	-25.399249	-41.268520	31.727137	7.921012	43.129437	30.898667	25.981865	4.655406	45.765281	29.466376	16.077710	-4.600995	54.205459	37.722217	4.913562	-9.395564	64.231259	45.533066
-0.795000	-160.147433	-5.066637	-73.570646	0.074101	-0.178800	-0.020462	103.259646	5.330099	-1.203832	14.694325	6.696097	-25.412834	-41.278145	31.740492	7.946591	43.090218	30.880851	26.004183	4.652705	45.772883	29.475134	16.090522	-4.603241	54.217552	37.714959	4.904256	-9.382683	64.226620	45.553119
-0.785000	-160.147433	-5.066637	-73.570646	0.074082	-0.178770	-0.020507	103.267953	5.319424	-1.184745	14.704311	6.692171	-25.427222	-41.292798	31.774420	7.969438	43.036668	30.843366	26.034870	4.653688	45.771853	29.473794	16.110334	-4.603857	54.228763	37.698164	4.894327	-9.367837	64.241728	45.575196
-0.775000	-160.147433	-5.066637	-73.570646	0.074051	-0.178740	-0.020556	103.270993	5.319091	-1.163758	14.719428	6.670098	-25.435854	-41.301267	31.817610	7.984470	42.987781	30.794171	26.059870	4.660300	45.765716	29.466679	16.126113	-4.601488	54.241856	37.671305	4.887531	-9.358859	64.273279	45.592008
-0.765000	-160.147433	-5.066637	-73.570646	0.074006	-0.178709	-0.020610	103.270194	5.332237	-1.144244	14.734221	6.634270	-25.436378	-41.294183	31.852532	7.988922	42.962534	30.747694	26.065698	4.671860	45.763270	29.461444	16.124555	-4.595911	54.260484	37.638031	4.880614	-9.360865	64.316045	45.600531
-0.755000	-160.147433	-5.066637	-73.570646	0.073943	-0.178672	-0.020673	103.267260	5.357905	-1.130893	14.742536	6.588847	-25.431926	-41.269409	31.863153	7.983195	42.969780	30.719567	26.046667	4.684668	45.773388	29.464538	16.095117	-4.588096	54.284857	37.605767	4.862335	-9.373498	64.362589	45.603574
-0.745000	-160.147433	-5.066637	-73.570646	0.073857	-0.178613	-0.020758	103.263665	5.392253	-1.128352	14.740050	6.532785	-25.429788	-41.233751	31.841248	7.970336	43.004998	30.719587	26.007922	4.693444	45.798551	29.477966	16.033829	-4.579692	54.308770	37.582611	4.817233	-9.391270	64.401625	45.606898
-0.735000	-160.147433	-5.066637	-73.570646	0.073740	-0.178519	-0.020874	103.260088	5.431070	-1.139148	14.726813	6.458828	-25.437443	-41.199112	31.786857	7.954480	43.054340	30.745633	25.961360	4.694016	45.829786	29.498545	15.942905	-4.572340	54.319755	37.572165	4.730572	-9.406488	64.416596	45.613594
-0.725000	-160.147433	-5.066637	-73.570646	0.073588	-0.178374	-0.021028	103.255518	5.471797	-1.161114	14.708596	6.357915	-25.457369	-41.174723	31.702888	7.938951	43.101311	30.781314	25.916252	4.685754	45.845316	29.518948	15.825915	-4.567136	54.301713	37.568309	4.590447	-9.412847	64.386334	45.619636
-0.715000	-160.147433	-5.066637	-73.570646	0.073405	-0.178172	-0.021220	103.246832	5.514132	-1.185766	14.696279	6.227132	-25.483183	-41.159749	31.588456	7.924664	43.131336	30.799121	25.870620	4.672249	45.814214	29.529307	15.681839	-4.564342	54.237917	37.553006	4.386713	-9.407910	64.288823	45.613892
-0.705000	-160.147433	-5.066637	-73.570646	0.073199	-0.177923	-0.021437	103.230030	5.559706	-1.199700	14.703064	6.076808	-25.499448	-41.140607	31.436618	7.909230	43.133497	30.768875	25.809689	4.659728	45.705079	29.519160	15.503004	-4.563294	54.113480	37.499925	4.110745	-9.393830	64.107982	45.582960
